<svg width="492" height="267" viewBox="0 0 492 267" fill="none" xmlns="http://www.w3.org/2000/svg">
<path d="M1 145.449L4.40278 154.871C7.80556 164.293 14.6111 183.136 21.4167 180.981C28.2222 178.826 35.0278 155.672 41.8333 155.082C48.6389 154.492 55.4444 176.467 62.25 188.218C69.0556 199.97 75.8611 201.499 82.6667 197.842C89.4722 194.184 96.2778 185.341 103.083 178.941C109.889 172.541 116.694 168.585 123.5 157.127C130.306 145.67 137.111 126.71 143.917 128.585C150.722 130.46 157.528 153.169 164.333 162.727C171.139 172.284 177.944 168.689 184.75 158.167C191.556 147.645 198.361 130.196 205.167 120.092C211.972 109.988 218.778 107.229 225.583 110.961C232.389 114.694 239.194 124.917 246 125.839C252.806 126.76 259.611 118.379 266.417 113.425C273.222 108.472 280.028 106.945 286.833 111.088C293.639 115.231 300.444 125.043 307.25 133.225C314.056 141.406 320.861 147.955 327.667 151.384C334.472 154.813 341.278 155.121 348.083 150.055C354.889 144.988 361.694 134.547 368.5 123.13C375.306 111.713 382.111 99.3195 388.917 89.5707C395.722 79.8219 402.528 72.7176 409.333 80.1291C416.139 87.5407 422.944 109.468 429.75 115.674C436.556 121.881 443.361 112.366 450.167 95.6357C456.972 78.9056 463.778 54.9601 470.583 57.6941C477.389 60.428 484.194 89.8414 487.597 104.548L491 119.255" stroke="#18A0FB"/>
<path d="M4.40278 154.871L1 145.449V267H491V119.255L487.597 104.548C484.194 89.8414 477.389 60.428 470.583 57.6941C463.778 54.9601 456.972 78.9056 450.167 95.6357C443.361 112.366 436.556 121.881 429.75 115.674C422.944 109.468 416.139 87.5407 409.333 80.1291C402.528 72.7176 395.722 79.8219 388.917 89.5707C382.111 99.3195 375.306 111.713 368.5 123.13C361.694 134.547 354.889 144.988 348.083 150.055C341.278 155.121 334.472 154.813 327.667 151.384C320.861 147.955 314.056 141.406 307.25 133.225C300.444 125.043 293.639 115.231 286.833 111.088C280.028 106.945 273.222 108.472 266.417 113.425C259.611 118.379 252.806 126.76 246 125.839C239.194 124.917 232.389 114.693 225.583 110.961C218.778 107.229 211.972 109.988 205.167 120.092C198.361 130.196 191.556 147.645 184.75 158.167C177.944 168.689 171.139 172.284 164.333 162.727C157.528 153.169 150.722 130.46 143.917 128.585C137.111 126.71 130.306 145.67 123.5 157.127C116.694 168.585 109.889 172.541 103.083 178.941C96.2778 185.341 89.4722 194.184 82.6667 197.842C75.8611 201.499 69.0556 199.97 62.25 188.218C55.4444 176.467 48.6389 154.492 41.8333 155.082C35.0278 155.672 28.2222 178.826 21.4167 180.981C14.6111 183.136 7.80556 164.293 4.40278 154.871Z" fill="url(#paint0_linear_3_1574)"/>
<defs>
<linearGradient id="paint0_linear_3_1574" x1="246" y1="57.4792" x2="246" y2="267" gradientUnits="userSpaceOnUse">
<stop stop-color="#18A0FB" stop-opacity="0.4"/>
<stop offset="1" stop-color="#18A0FB" stop-opacity="0"/>
</linearGradient>
</defs>
</svg>
