<svg width="24" height="24" viewBox="0 0 24 24" fill="none" xmlns="http://www.w3.org/2000/svg">
<g clip-path="url(#clip0_10_21057)">
<path d="M12 24C18.6274 24 24 18.6274 24 12C24 5.37258 18.6274 0 12 0C5.37258 0 0 5.37258 0 12C0 18.6274 5.37258 24 12 24Z" fill="#E84142"/>
<path fill-rule="evenodd" clip-rule="evenodd" d="M8.63849 17.0625H6.36749C5.89049 17.0625 5.65499 17.0625 5.51099 16.9703C5.43512 16.9207 5.37196 16.8541 5.32662 16.7756C5.28128 16.6972 5.25503 16.6092 5.24999 16.5188C5.24099 16.3493 5.35874 16.1415 5.59499 15.7275L11.199 5.83275C11.4375 5.41275 11.559 5.20275 11.7105 5.12475C11.7916 5.08352 11.8813 5.06203 11.9722 5.06203C12.0632 5.06203 12.1529 5.08352 12.234 5.12475C12.3862 5.20275 12.507 5.41275 12.7455 5.83275L13.8975 7.84725L13.9035 7.85775C14.1607 8.30775 14.2912 8.53725 14.3482 8.77725C14.412 9.03994 14.412 9.31406 14.3482 9.57675C14.2912 9.819 14.1615 10.0493 13.9005 10.5068L10.956 15.7193L10.9485 15.732C10.689 16.1865 10.5585 16.4168 10.3755 16.5908C10.1785 16.7793 9.93941 16.9182 9.67799 16.9958C9.43874 17.0625 9.17249 17.0625 8.63849 17.0625ZM14.3707 17.0625H17.6227C18.1027 17.0625 18.3442 17.0625 18.4882 16.968C18.5647 16.9182 18.6282 16.851 18.6736 16.7718C18.719 16.6927 18.7449 16.6039 18.7492 16.5128C18.7575 16.3485 18.6427 16.1498 18.417 15.759L18.393 15.7185L16.764 12.927L16.7452 12.8955C16.5165 12.5078 16.4002 12.312 16.2525 12.2363C16.172 12.1952 16.083 12.1737 15.9926 12.1737C15.9023 12.1737 15.8132 12.1952 15.7327 12.2363C15.5827 12.3143 15.4627 12.519 15.2242 12.93L13.6005 15.7215L13.5952 15.7313C13.3575 16.1423 13.2382 16.347 13.2472 16.5158C13.2522 16.6066 13.2784 16.6951 13.3238 16.774C13.3691 16.8529 13.4323 16.9201 13.5082 16.9703C13.6492 17.0625 13.8907 17.0625 14.3707 17.0625Z" fill="white"/>
</g>
<defs>
<clipPath id="clip0_10_21057">
<rect width="24" height="24" fill="white"/>
</clipPath>
</defs>
</svg>
