<svg width="24" height="24" viewBox="0 0 24 24" fill="none" xmlns="http://www.w3.org/2000/svg">
<path d="M10.5 6C10.5 6.82846 9.8291 7.5 9 7.5C8.1709 7.5 7.5 6.82846 7.5 6C7.5 5.17154 8.1709 4.5 9 4.5C9.8291 4.5 10.5 5.17154 10.5 6Z" fill="#6B6C7E"/>
<path d="M10.5 12C10.5 12.8285 9.8291 13.5 9 13.5C8.1709 13.5 7.5 12.8285 7.5 12C7.5 11.1715 8.1709 10.5 9 10.5C9.8291 10.5 10.5 11.1715 10.5 12Z" fill="#6B6C7E"/>
<path d="M9 19.5C9.8291 19.5 10.5 18.8285 10.5 18C10.5 17.1715 9.8291 16.5 9 16.5C8.1709 16.5 7.5 17.1715 7.5 18C7.5 18.8285 8.1709 19.5 9 19.5Z" fill="#6B6C7E"/>
<path d="M16.5 6C16.5 6.82846 15.8291 7.5 15 7.5C14.1709 7.5 13.5 6.82846 13.5 6C13.5 5.17154 14.1709 4.5 15 4.5C15.8291 4.5 16.5 5.17154 16.5 6Z" fill="#6B6C7E"/>
<path d="M15 13.5C15.8291 13.5 16.5 12.8285 16.5 12C16.5 11.1715 15.8291 10.5 15 10.5C14.1709 10.5 13.5 11.1715 13.5 12C13.5 12.8285 14.1709 13.5 15 13.5Z" fill="#6B6C7E"/>
<path d="M16.5 18C16.5 18.8285 15.8291 19.5 15 19.5C14.1709 19.5 13.5 18.8285 13.5 18C13.5 17.1715 14.1709 16.5 15 16.5C15.8291 16.5 16.5 17.1715 16.5 18Z" fill="#6B6C7E"/>
</svg>
