<svg width="24" height="24" viewBox="0 0 24 24" fill="none" xmlns="http://www.w3.org/2000/svg">
<path d="M12 6C13.6567 6 15 4.65684 15 3C15 1.34316 13.6567 0 12 0C10.3433 0 9 1.34316 9 3C9 4.65684 10.3433 6 12 6Z" fill="#6B6C7E"/>
<path d="M15 11.9766C15 13.6334 13.6567 14.9766 12 14.9766C10.3433 14.9766 9 13.6334 9 11.9766C9 10.3197 10.3433 8.97656 12 8.97656C13.6567 8.97656 15 10.3197 15 11.9766Z" fill="#6B6C7E"/>
<path d="M15 21C15 22.6568 13.6567 24 12 24C10.3433 24 9 22.6568 9 21C9 19.3432 10.3433 18 12 18C13.6567 18 15 19.3432 15 21Z" fill="#6B6C7E"/>
</svg>
