<svg width="36" height="36" viewBox="0 0 36 36" fill="none" xmlns="http://www.w3.org/2000/svg">
<g clip-path="url(#clip0_4_131)">
<path fill-rule="evenodd" clip-rule="evenodd" d="M15.1764 7.125C15.9779 7.12547 18.8039 7.46264 20.4979 7.94013C22.4391 8.48731 24.203 9.28931 25.6887 10.3003C27.1744 11.3114 28.353 12.5117 29.1571 13.8327C29.9611 15.1537 30.375 16.5695 30.375 17.9993C30.375 19.4291 29.9611 20.845 29.1571 22.166C28.353 23.4869 27.1744 24.6872 25.6887 25.6983C24.203 26.7093 22.4391 27.5113 20.4979 28.0585C18.8039 28.536 16.125 28.9005 15.1764 28.8736C14.2279 28.8467 13.0866 28.4606 12.2395 28.0585C11.0869 27.5113 10.0396 26.7093 9.15749 25.6983C8.27533 24.6872 7.57556 23.4869 7.09815 22.166C6.62073 20.845 6.375 19.4291 6.375 17.9993C6.375 16.5695 6.62072 15.1536 7.09814 13.8327C7.57556 12.5117 8.27533 11.3114 9.15748 10.3003C10.0396 9.28931 11.0869 8.48731 12.2395 7.94013C13.0866 7.53801 14.375 7.12453 15.1764 7.125ZM12.7693 26.5924C14.3059 27.3219 16.0818 27.3024 17.7577 27.0111C18.3861 26.9019 19.0037 26.7621 19.6056 26.5924C21.2639 26.125 22.7706 25.4399 24.0398 24.5762C25.309 23.7125 26.3158 22.6872 27.0027 21.5587C27.6896 20.4302 28.0431 19.2207 28.0431 17.9993C28.0431 16.7779 27.6896 15.5684 27.0027 14.4399C26.3158 13.3114 25.309 12.2861 24.0398 11.4224C22.7706 10.5587 21.2639 9.8736 19.6056 9.40617C19.0037 9.23652 18.3861 9.09675 17.7577 8.98752C16.0819 8.69622 14.306 8.6767 12.7693 9.40617V9.40617C11.7847 9.8736 10.8901 10.5587 10.1365 11.4224C9.38292 12.2861 8.78514 13.3114 8.3773 14.4399C7.96946 15.5684 7.75955 16.7779 7.75955 17.9993C7.75955 19.2207 7.96946 20.4302 8.3773 21.5587C8.78514 22.6872 9.38292 23.7125 10.1365 24.5762C10.8901 25.4399 11.7847 26.125 12.7693 26.5924V26.5924Z" fill="#E5E4E7"/>
<path d="M30.375 17.9993C30.375 19.0392 30.1681 20.0689 29.766 21.0296C29.364 21.9903 28.7747 22.8632 28.0319 23.5985C27.289 24.3338 26.4071 24.9171 25.4365 25.3151C24.4659 25.713 23.4256 25.9178 22.375 25.9178C21.3244 25.9178 20.2841 25.713 19.3135 25.3151C18.3429 24.9171 17.461 24.3338 16.7181 23.5985C15.9753 22.8632 15.386 21.9903 14.984 21.0296C14.5819 20.0689 14.375 19.0392 14.375 17.9993L16.705 17.9993C16.705 18.7363 16.8517 19.4661 17.1366 20.147C17.4216 20.8279 17.8392 21.4466 18.3657 21.9677C18.8922 22.4889 19.5173 22.9023 20.2052 23.1843C20.8931 23.4664 21.6304 23.6115 22.375 23.6115C23.1196 23.6115 23.8569 23.4664 24.5448 23.1843C25.2327 22.9023 25.8578 22.4889 26.3843 21.9677C26.9108 21.4466 27.3284 20.8279 27.6134 20.147C27.8983 19.4661 28.045 18.7363 28.045 17.9993L30.375 17.9993Z" fill="#E5E4E7"/>
<path d="M30.375 17.9993C30.375 16.9594 30.1681 15.9297 29.766 14.969C29.364 14.0083 28.7747 13.1354 28.0319 12.4001C27.289 11.6648 26.4071 11.0815 25.4365 10.6835C24.4659 10.2856 23.4256 10.0808 22.375 10.0808C21.3244 10.0808 20.2841 10.2856 19.3135 10.6835C18.3429 11.0815 17.461 11.6648 16.7181 12.4001C15.9753 13.1354 15.386 14.0083 14.984 14.969C14.5819 15.9297 14.375 16.9594 14.375 17.9993L16.705 17.9993C16.705 17.2623 16.852 16.5326 17.137 15.8517C17.4219 15.1709 17.8395 14.5522 18.366 14.0311C18.8925 13.51 19.5175 13.0966 20.2053 12.8146C20.8932 12.5326 21.6305 12.3875 22.375 12.3875C23.1195 12.3875 23.8568 12.5326 24.5447 12.8146C25.2325 13.0966 25.8575 13.51 26.384 14.0311C26.9105 14.5522 27.3281 15.1709 27.613 15.8517C27.898 16.5326 28.045 17.2623 28.045 17.9993L30.375 17.9993Z" fill="#E5E4E7"/>
</g>
<defs>
<clipPath id="clip0_4_131">
<rect width="36" height="36" fill="white"/>
</clipPath>
</defs>
</svg>
